<svg xmlns="http://www.w3.org/2000/svg" viewBox="0 0 32 32">
  <!-- Background chip/database shape -->
  <rect x="4" y="4" width="24" height="24" rx="3" fill="#1a1a2e"/>

  <!-- Green circuit lines (chip aesthetic) -->
  <path d="M8 16h4M20 16h4M16 8v4M16 20v4" stroke="#3ECF8E" stroke-width="2" stroke-linecap="round"/>

  <!-- Center database icon -->
  <ellipse cx="16" cy="12" rx="6" ry="3" fill="#3ECF8E"/>
  <path d="M10 12v8c0 1.66 2.69 3 6 3s6-1.34 6-3v-8" stroke="#3ECF8E" stroke-width="2" fill="none"/>
  <path d="M10 16c0 1.66 2.69 3 6 3s6-1.34 6-3" stroke="#3ECF8E" stroke-width="1.5" fill="none"/>
  <path d="M10 19c0 1.66 2.69 3 6 3s6-1.34 6-3" stroke="#3ECF8E" stroke-width="1.5" fill="none"/>

  <!-- Corner dots (connection points) -->
  <circle cx="8" cy="8" r="1.5" fill="#3ECF8E"/>
  <circle cx="24" cy="8" r="1.5" fill="#3ECF8E"/>
  <circle cx="8" cy="24" r="1.5" fill="#3ECF8E"/>
  <circle cx="24" cy="24" r="1.5" fill="#3ECF8E"/>
</svg>
